<?xml version="1.0" encoding="utf-8"?>
<!-- Generator: Adobe Illustrator 28.2.0, SVG Export Plug-In . SVG Version: 6.00 Build 0)  -->
<svg version="1.1" id="Layer_1" xmlns="http://www.w3.org/2000/svg" xmlns:xlink="http://www.w3.org/1999/xlink" x="0px" y="0px"
	 viewBox="0 0 455 297.5" style="enable-background:new 0 0 455 297.5;" xml:space="preserve">
<style type="text/css">
	.st0{fill:url(#SVGID_1_);}
	.st1{fill:#FFFFFF;}
</style>
<linearGradient id="SVGID_1_" gradientUnits="userSpaceOnUse" x1="253.6264" y1="-83.2486" x2="202.9267" y2="194.1817" gradientTransform="matrix(1 0 0 -1 0 298)">
	<stop  offset="0.3589" style="stop-color:#0B1724"/>
	<stop  offset="0.5031" style="stop-color:#0C1927"/>
	<stop  offset="0.604" style="stop-color:#112130"/>
	<stop  offset="0.6918" style="stop-color:#192F3F"/>
	<stop  offset="0.772" style="stop-color:#234255"/>
	<stop  offset="0.8471" style="stop-color:#315A72"/>
	<stop  offset="0.9175" style="stop-color:#427794"/>
	<stop  offset="0.9588" style="stop-color:#4E8CAC"/>
</linearGradient>
<path class="st0" d="M437,228.8l-28.9,4.9l21.3,29.4l-5.4,3.8l-90.1-79.1l55.2,93.2l-2.7,10.9L273.5,170.5l15.3,94.3l-57.8-30
	l-27.2-97l30,49.6l13.1-65.4l53.9,22.3l22.9-28.3L437,228.8z M24,280.6l19.6,8.7l84.5-74.6l15.8-25.6L24,280.6z M178.7,191.8
	l-109,105.7h14.2l76.8-61.6L178.7,191.8z"/>
<g>
	<path class="st1" d="M0,244.6l148.9-140.3l-30.1,56.4L0,250.1V244.6z"/>
	<path class="st1" d="M155.3,130.8L228.1,0l126.6,203.2l-99.7-73l-21.2,57.2l-5.7-128.6L155.3,130.8z"/>
	<path class="st1" d="M328.1,122.1l19.5,37.5L455,246.8l-3.3-8.1L328.1,122.1z"/>
</g>
</svg>
