<svg enable-background="new 0 0 870.7 852.9" viewBox="0 0 870.7 852.9" xmlns="http://www.w3.org/2000/svg"><path d="m197.5 550.1c-16-18-33.3-35.1-49.8-52.7-8.3-8.2-18.1-25.4-30.1-12-14.1 13.7-27.6 28.1-42.1 41.4-12.6 13.4-25.7 26.4-38.7 39.5-9.2 9.1-11.4 1.8-14.6-7.3-6-14.6-9.3-30.1-13-45.5-3.1-18.1-7-36.2-7.3-54.6-2.3-17.9-2.5-35.9-.9-53.8.3-27.9 5.2-55.3 13.1-81.9 31.9-121.8 121.6-225.7 234.9-279.6 35-15.7 71.2-29.6 109.4-35.5 37-7.3 77-11 115.3-5.5 26.1 2.8 51.8 8.3 76.8 16.4 70.2 16.7 133.1 56.5 186.5 104.2 38.8 38.6 73.7 82.8 95.3 133.4 24.3 51.6 38.9 108.7 38.4 165.9-.4 14.8.5 29.7-1 44.4-2.9 26.4-8.7 52.3-16.1 77.8-2.7 7.9-4.6 16.7-8.5 24-3.9 5.6-9.6-.6-13.1-3.8-23.3-22.5-45.4-46.1-68.4-68.9-6-5.5-10.6-15.2-19.4-15.8-12.7 1.2-23.4 20.5-33.4 28.3-21.1 23.8-43.7 46-63.2 71.2-3.5 3.6-5.2 11.4 2 7.6 16.4-12.1 31.8-26.1 47.5-39.3 14-11.7 28.6-23.1 38.2-38.9 6.7-8.2 3 9.6 2.5 12.7-2.8 16.4-5 37.9 10.2 48.9 12.1 9.6 22.8 21.7 36.3 29.1 7.4 1.6.9-10.8.8-14-2.1-10.1-7.3-21-6.4-31.5 1.7-1.3 3.7 2.9 5.2 4.4 6.1 8.2 13.5 15.5 22.2 20.7 4.5 2.3 9.6 2.3 14.1 4.8 3.5 2.2 7.6 5.1 10.4 7.6 5.3 5.4-.3 15-5.7 18-2.8 1.5-6.2 1.8-9.5 1.9-17.8 0-35.6-.1-53.4 0-8.9.7-17.6-2-22.9-9.5-4.5-5.3-9.6-10.4-14.5-15.6-4.8-5.7-11.6-10.4-18.1-4.5-20.1 19.9-40 40.2-60 60.2-15.2 12.4-38.3-.7-54.2 10.4-5.1 3.4-8.4 11.2-.6 12.8 63.1 1.6 125.5.3 189 .7 11.2-.7 9.9 6.2 2 12.3-3.5 2.5-7.9 2.9-12.2 2.8-34.3-.1-68.6-.2-102.9-.2-21.1.4-42.2-.1-63.3.3-3.4.2-6.7.5-9.8 1.8-7.1 2.5-9.7 12.8-1.8 15.8 53.1 3.9 107.4.1 160.8 1.4 13.8-.8 5.5 8.2-1.3 13.1-4.5 3-10.2 2.9-15.5 2.9-15.8-.3-31.6 0-47.4.7-15.8.3-31.6.9-47.4.8-3.5 1-39-5.9-28.6 4.4 4.6 4.2 9.7 8.3 15.6 10.3 30.8 4.3 62.9.3 94 1.7 3.3 0 9.7.1 5.5 4.7-7.1 7.3-15.2 14.8-25.9 14.2-17.6.6-35.7-.9-53.2.7-3.6 1.6-.2 5.7 1.4 7.8 6.4 9.5 18.2 10 28.4 12.6 5.2 2.8-8.3 8.5-9.8 10.2-8.6 6-16.2 9.9-23.9.8-32.1-31.2-63.4-63.3-96.5-93.5-5.4-3.3-15.8-16.9-21.2-14.8-3.8 1.1-7 7.7-11.4 5-2.1-1.4-3.5-3.9-4.9-6.2-5-8.8-10.7-17.2-16.2-25.6-6.8-11-14.2-21.6-21.1-32.6-8.4-14.9-18.6-28.8-27.8-43.2-2.8-4.1-4.8-9.6-9.3-12-5.9-1.8-8.3 6.8-11.3 10.6-6.4 9.5-12.2 19.3-17.8 29.4-15 26.3-31.2 52-45.4 78.7-9.7 20.1 29.6-25.6 32.6-26.8 9-8.5 17.9-17.3 26.7-26.3 2.9-2.8 10.5-12.3 11.8-3.6.7 32.5.1 65.2.2 97.7 0 2.2-.1 6.1-1.6 7.1-2.6.6-4.5-3.3-5.9-5.1-4.5-6.8-8.9-13.9-13.8-20.4-7.6-10.4-3.3 2.9-2.2 7.1 3.3 11.5 11.9 21.2 12.1 33.6.5 2.8 1.1 5.4 2.3 8 6.6 13.3 9.7 7.4 14.4 23.8 2.3 4.3 6.6 8.5 7.1 13.4.1 2.3-.9 3.4-.1 4.6 4.9 2.5 9.9 6.7 14.6 10.1 7.2 3.4 13.9 7.2 20.5 11.8 16.2 10.5 13.1 2.3 11.1-11.9-2.1-15.5-6-30.7-9.1-46.1-.5-1.9-2.9-12.1 1.2-7.6 4 4.7 6.7 10.4 10.5 15.4 2.6 3.4 5.6 6 7.8 9.9 3.4 6.1 5.6 12.6 8.5 18.8 1.6 6.4 4.3 11.4 8.1 16.5 1.8 4.7 7.3 4.5 10.9 7.1 2.8 2.6 2.5 7.6 5.5 9.9 1 .8 2.6.9 3.8 1.2 3 .7 4.6 3.4 6.1 5.8 3.7 5.3-26 9.4-29.5 10.5-58.6 9.9-119.6 10.8-177.3-4.6-3.8-1.6-15.3-1.2-14.6-6.6 3.3-4.9 9.9-9.4 13.4-14.3 2.1-3.9 4-8.1 7.9-10.7 22.3-16.3 26.2-23.8 35.4-49.2 2.8-7.6.9-10.4-5.5-4.2-23.6 22.8-46.9 46.4-70.4 69.2-3.8 3.2-8.4 3.9-13 2.3-4.4-1.6-11.9-3.4-8.7-8.7 19.2-19.1 41.4-36 58-57.5 1.4-1.9 10.1-15.3 2.6-11.4-21.1 15.4-41.6 32.1-61.7 48.9-8.9 5.8-17.2 19.5-29 13.2-8.7-4.6-18.8-7.9-26.1-14.5-3.7-6.5 6.8-10.6 10.7-14.4 21.8-17.4 44.8-33.3 66.6-50.8 9.1-6.6 19.6-12.2 24.5-22.9 4.8-8.7 9.5-17.6 14-26.5 1.3-2.8 10.6-17.5 1.6-10.5-27.1 24-54.1 48.5-79.8 74.1-12.5 11.2-24.4 23.3-36.2 35.1-6.6 7.3-12.3 13.3-22.2 5.5-4.6-3.8-12.8-6.4-15.3-11.6 2.3-3 8.1-1.8 11.5-3.3 8.5-2.9 16.6-8.8 22.2-15.6 5-7.7-57.6-.6-64.9-4.7-5.2-1.2-20.1-12.1-17.7-16.2 27.3-3.4 56.3-.4 84.2-1.4 9.5.4 19.3-.8 26.5-7.6 1.7-1.6 6.3-4.7 6.3-6.9-1.3-2.9-8.6-1.3-11.7-1.8-13.8-.2-27.7 0-41.6-.1-24.8-1-49.6-1.8-74.5-1.6-5 .1-10.2-.5-14.1-3.7-11-9.6-8.5-13.2 5.4-12.3 49.4-.2 98.9.2 148.3-.1 10.7.7 16.9-9.9 6.9-16.2-4.3-2.4-9.6-2.5-14.5-2.5-54.3-.1-108.6 0-162.9-.1-8 1.1-18.9-4.9-18.2-13.3.6-1.9 4.9-2.1 7.3-2.1 61.5.1 123.1.2 184.6 0 3.6-.1 9.1-.3 10.1-4.2-1.2-14.4-22.1-14.5-33.2-14.6-14 .3-22.7 3-32.1-9.7-16.3-16.7-32.8-33.1-48.5-50.3-6.1-7.3-13.8-11-21.3-2.8-9.9 7.9-17.4 20.5-28.7 25.9-4.1 1.5-8.7 1.4-13 1.4-16.8 0-33.5 0-50.4 0-6.4.4-12.8-1.8-15.5-8.1-6.3-10.3.9-16.1 8.8-21.9 12.7-9.7 25.6-19.6 38.1-29.4 9.9-7.9 6.4 2.5 4.6 8.7-1.3 5-4.5 11.8-1.5 16.1 3.6 6.2 10.7 3.1 15.8 2.3 1.5-.1 2.8 0 4.3-.6 5.4-2.9 21.6-17 23.3-22.8 2.7-19.4-19.6-20.5-9.7-44.5 1.8-4.4 1.6-11.2 5.1-12.1 3.3.8 5.1 6.2 7.1 9.2 13 27.2 24.6 30 45.2 48.4 7.2 5.2 33 33.5 40.4 29.6 3.8-5-4.7-11.7-7.5-15.8-6-7.3-11.3-14.6-18.1-20.9zm62.4-366.5c10.1 12.5 11.1 28.9 12.1 44.2-.1 4.1 6.1 15.7 1 17.3-1.6.3-3 0-4.6-.2-5.3-.9-10.9.9-15.9 3-25.1 12.1-46.6 31.1-63.6 52.9-7.6 11.3-16.9 21.7-22.1 34.4-2.7 6.4-4.7 13.1-6.2 20.1-1.7 6.5.8 10.1 7.5 11.1 14.6 4.1 11.2-6.8 14.3-16.1 3.9-12.7 10.8-24.4 18.3-35.4 4.8-6.7 10.8-11.7 16.4-17.5 6.3-6.4 12.4-12.9 19.3-18.5 5.2-4.1 10.9-7.5 16.4-11.1 6.2-4.1 13-7.2 19.7-10.3 4.2-2.1 8.9-2.6 12.7.7 10.2 10.4 23.7 19.5 38.8 18.4 29.5-3.5 58.8-8 83.7 12.2 3.1 2.6 6.5 5.9 10.3 6.6 4.5 1 8.8-2.5 9.3-7.1 1.6-14.5-30.5-28.6-42.5-31.4-7.5-1.9-15.2-2-22.8-1.9-7 .1-14-.3-20.8 1.1-13.9 3.6-27.5 5.2-38-6.7-4-4.5-2.3-6.5 3-7.3 11.7-2.4 24.4-7.1 30.8-17.9 5.8-9.5 7.4-22.4 2.6-32.7-4.7-9.4-12.5-18.3-23.1-20.9-6.7-1.9-13.8-.8-20.6.3-4.5.8-9.4.9-10.3 5.1-.4 3.8 2.7 10.9 6.1 14 2.4 1.9 5.6 1.3 8.6.7 4.4-1 9.1-1.6 13.4-.3 11.6 3.7 13 18.4 4.9 26.5-5.6 5.9-13.7 9.3-21.4 11.4-10.7 2.1-10.3-12.2-11.3-19.4-1.5-14.5-5.6-29.3-15.4-40.4-11.1-12.3-21.6-25.9-23.9-42.7-.3-6.7 1.7-13.8 4.4-19.9 2.2-4.2 5.7-7.4 9.7-10.1 3.7-2.7 7.9-5.3 9-9.8 1-3.9-2.2-7.7-6.2-8.5-5.4-1.1-11.3 1.6-15.6 4.9-11.2 9.5-16.8 24.5-19.2 38.8-.9 6.8 1 13.5 2.9 20.1.9 3.4 3 7.8.5 10.6-3.2 3.1-8.3 3.8-12.2 6.1-7.4 3.6-15.3 7.2-21.7 12.7-5.4 4.4-11.2 7.8-16.1 12.7-10 10-20.4 19.7-29.5 30.7-6 7.4-11.2 15.2-16.7 22.9-9 13.7-18.8 27-26.5 41.5-5.1 10.2-8.2 21.1-12.4 31.7-4.6 12.1-7.7 24.7-10.2 37.4-1.2 4.5-1.6 9.2-2.4 14-.6 5.4-6.6 20-1.8 23.3 3.6.1 6.6-3.6 10.1-4.4 4.3-1.6 8.5-.3 10.6-3.8 1.3-2.3 1.1-6 1.2-8.8 0-4.4.4-8.6 1-12.8 1.3-12.9 4.4-25.3 9-37.4 5.3-17.5 13.3-33.9 23.6-49 13.3-20.6 28.4-40.3 45.9-57.2 11.4-11.5 24.2-22 38.5-29.7 6.8-3.3 13.9-6.5 21.5-7.1 6.7-.9 12.1 4 15.9 8.9zm434.3 133.9c-21.8-34-52-63.3-90.9-76.6-9.1-3.5-2.3-14-2.7-20.9.1-6.2 2.1-15.6 9.3-10.6 5.2 4.5 8.8 11.7 15 15.4 7.3 5.2 16.3 8.4 23.8 13.5 10 6.5 17.8 15.5 26.2 23.9 20.9 19.4 37.8 43 46.7 70.3 1.6 4.4 3.5 8.6 4.6 13 1.7 5.5.7 12.1 4.1 16.8 2.8 4.1 18.1 7.7 18.1.2-1.3-12.6-5.8-25-8.7-37.3-6.8-17.1-15.4-33.8-26.2-48.8-11.1-14.5-23-28.4-36.8-40.4-3.8-3.5-7.9-7.7-12.8-9.4-6-2.2-12.3 1.3-18.8 1.7-10 .9-20.1-4.6-25.8-12.8-14.4-21.5 6.6-51.4 31.6-44.5 9.9 2.2 18 9.9 20.7 19.7 1.4 6.5 2.2 13.2 7.8 17.4 18.1 14.3 33.6 31.6 46.8 50.3 15 18.9 26.1 40.6 32.6 63.9 2.7 9.2 6.4 18.2 8 27.6 1.4 7.5-1.3 16.3 1.2 23.4 2.6 3.5 7.8 3.6 11.3 6 9 6.2 12.4 6.8 11.3-5.5-3.3-27.3-9.7-54.3-21.4-79.3-3-6.1-7-11.8-10.2-17.9-4.6-9.2-8.4-18.8-14.2-27.3-14.6-22.3-33-41.8-51.2-61.1-19.5-15.4-27.6-32.1-54.5-35.1-4.9-1.4-2.2-6.9-.9-10.4 9.6-23.2-.9-54.4-24.5-64.5-14.1-4.8-17.2 12.7-4.9 18 22.7 10.2 17.2 41 3.6 56.7-10 12.1-21.6 24.2-25.9 39.7-2.1 9-1.8 18.4-3.7 27.5-1 7.7-7.1 9.2-13.3 6.6-6-2.1-11.9-4.6-16.3-9-9.4-8.8-9.6-23.6 4.8-27.2 6-1.9 12.4 1 18.4.3 2.6-.6 4.3-3 5.5-5.2 5.4-8.3.9-13.2-7.9-14.8-10.2-2-21.4-2.2-30.1 4.4-29.9 21.6-13.3 65.7 22.3 67 11.2 1.9-6.6 14.6-11 15.4-7.5 2.5-15.4.5-22.9-.7-23.5-4.1-48.3-2.8-69.2 10-6.4 3.9-13 8.3-17 14.7-4.3 6-.9 16.2 7.5 13.3 9.3-4.6 17-13.5 27.3-16.5 21.7-8.4 45.1-3 67.6-1.7 15.2 1.3 27.5-7.6 37.5-18.5 4.2-3.8 9.3-2.4 13.7.1 39.8 21.2 80.5 54.4 90.2 100.5.6 3.7 1.7 8.6 6.2 8.8 5.5-.6 17.3-.1 16.5-7.4-2.1-15.4-10.6-29.3-18.5-42.4zm-567.1 35c-.4 2.4-.5 4.9-.6 7.4 0 3.9-1.7 9.8 1.9 10 1.4 0 3.1-.5 4.5-1 6.7-2.2 10.2-4.5 11.3-11.6 1-5.6 2.9-11.3 4.2-17 .9-3.8 2-7.5 3.4-11.1 5.9-14.3 12.9-28.2 21.5-41 6.1-8.9 13.3-17.1 20.3-25.2 13.5-14.7 29.1-27.8 45.9-38.7 6.2-4.8 21.5-8.2 18.3-18.3-7.7-15.1-35.8 6.6-44.6 12.8-18.4 13.7-33.9 30.7-48.4 48.3-9.3 11.6-16.5 25-23.5 38-3.7 6.8-6.9 13.9-9 21.3-2.1 8.8-3.5 17.1-5.1 25.8zm683.2 17.4c.4 2.9.6 5.9.6 8.9 0 2.8.1 6.1 2.6 7.8 2.2 1.5 6.2 1.1 9.6 1.7 4.6.8 7.5 1 7.1-5.3-.2-7.4-1.4-14.7-2.5-22-1.5-12.3-3.3-24.4-7.4-36.1-5-18.7-12.2-36.6-20.2-54.4-8.8-21.4-20.2-41.6-33.8-60.2-6.3-8.6-11.9-17.9-19-25.8-4.3-5-8.2-10.3-12.9-14.8-4.7-4.3-8.1-10-12.7-14.4-2.1-2-4.4-3.7-6.5-5.8-4.1-4.4-7.7-9.2-12.5-12.9-4.4-3.6-8.6-7.3-13-10.8-4-3.1-8.3-5.8-12.1-9.1-2.2-1.9-4.4-4-6.8-5.5-12.5-6.8-10.2 14.7-6 20.2 7 9.6 18.3 15.2 27.2 23 4.4 3.7 8.3 8.2 12.7 11.9 5 3.8 8.7 8.7 12.9 13.4 6.8 6.5 13 13.7 18.7 21.2 15 18.6 28.2 38.8 39.7 59.8 10.5 21.1 19.4 43.2 25.3 66.1 1.7 5.9 2.8 11.8 4.4 17.7 1.3 4.2 2.8 8.2 3.1 12.6.1 4.3.8 8.6 1.5 12.7zm-382 104.7c-5.2-12.4-17.4-6.2-25.1.1-9.4 7.2-18.4 15.3-24 25.9-5 10.5-8.9 8.2-18.4 4.2-20.6-8.8-40.5-5.5-58.9 6.6-7.4 5.2-13 12.8-16.9 20.9-5.3 11.5-4.4 33.3 2.7 43.8 3.8 5.7 10.2 11.9 17.6 12.2 5.6.4 10.1-5 9.1-10.5-.8-5.1-5.4-8.8-8.5-12.9-10.9-14.5-.1-33.1 14.7-39.7 5.7-2.6 12.2-3.8 18.5-3.4 5.7.4 10.9 2.5 16.2 4.1 5.4 1.6 10.4 4 15.4 6.6 11.2 5.3 23.5 6.8 35.7 6.9 5.2-.1 10.9.4 15.4-1.7 10.5-4.6 5-19.3-5.3-18.8-5.6.5-11.4 2.9-17 1.9-12.1-2.2-.5-15.6 4.2-20 8.4-7.9 28.1-11 24.6-25.9zm16.1 4.7c1.4 7.5 8.6 11.7 14.9 14.8 10.9 5.5 25.6 10.6 35.5.9 4.7-5.1 6.8-12.6 11.4-18 8.3-10.4 19.9-19.4 22.9-33.1 1.8-16.1 3.5-35.9-6.3-49.8-11-15.6-32.7-15.5-43 .8-5 6.8-3.8 15.4-4.1 23.3-.9 6.6-7.6 3.8-9.5-.7-16.7-40 31.3-73.7 62.8-43.4 6.4 6.3 11.8 13.8 14.5 22.6 1.2 3.6 1.9 7.2 4.6 9.7 2.9 2.5 8.1 2.7 11.4.3 6.7-4.9 4.1-16.9 1.3-23.8-2-4.8-5-9.2-4.1-14.4 2.2-9.6 10.7-17.9 20-21.3 28.9-10 63.9 10.1 69.8 40.1.8 17.9-4.8 4.3-10-1.5-9-10-22.8-17-36.1-13.1-2.1.3-3.7.1-4.8-1.6-1.7-2.6-1.4-7.7-4.3-9.9-9.8-5.9-19.4 6.3-18.8 16.2.4 8.9 3.6 20.1 10.9 25.3 5 3.3 12.8 4 17.7.1 2.2-2 2.4-4.9 3.7-7 1.1-2 4-2.1 6.2-1.6 7.2 1.3 12 8.9 7.8 15.3-3.4 5.1-9.2 8.4-12.9 13.4-7.8 9-11.4 22.8-7.1 33.9 2.3 5.5 10.2 15.9 16.6 14.7 3.2-.9 12.3-9.4 12.6-12.2-.6-6.6-13.5-7.3-6-22.6 3.8-7 11-11.1 16.2-17 4.5-4.7 6.4-11.2 10.3-16.4 6.1-7.1 13.4-13.7 14.7-23.6 2.4-13.8-7.2-26-16.5-35.1-7.2-5.7-8-15-11.9-22.8-7.1-13.4-17.5-25.2-29.4-34.4-4.4-3.3-11.9-3.2-16 0-4.6 4.7 4.6 9.5 7.2 12.8 6 5.4 20 23.6 2.6 21.9-11.5.3-14.2-9.1-21.7-15.4-11.2-8.8-24.4-14.9-38.6-17.5-25-3.4-53.7-1-73.4 16.3-7.6 7.5-18.9 15.7-19 27.3.7 7.1 9 8.8 14.8 6.3 6.7-2.5 9.9-9.5 15.2-13.8 7.2-5.9 15.8-10.3 24.8-12.6 16-3.8 10.1 2 15.5 11 3.2 4.3 10.9 4.6 14.4.5 2.2-2.4 2-6.1 3.2-9 1.9-4.7 7-2.6 11.6-1.1 5.8 2.5 12.7 5.3 16.2 10.8 1.8 4.6-4.2 7.2-7.2 9.4-5.7 3.5-9.9 8.8-14.5 13.6-3.2 3.1-7.2 1.1-10.5-.6-11.7-4.4-24.8-7.8-37.5-6.1-30.3 3.6-54.3 34.4-51.1 64.6 2 15.4 3.6 25.4 16.7 35.4 7.9 5.6 24.4 5.7 31.2-2 13.6-13.1 5.1-24.9 11.6-31.7 9.3-3.4 7.9 15.2 8 20.6 1.2 22.9-12.7 21.3-22.1 38.4-8.1 13.7-9.4 14.1-22.6 4.9-7.4-4.6-22.1-4.1-19.8 7.9zm-386.8-94.7c3.7.1 3.1-5.4 3.5-8.3.3-2.8.9-5.7 1.2-8.5.6-4.9.5-9.9 1.5-14.7 1.2-6.3 3.5-12.4 4.9-18.6 7.5-31.1 19-61.3 35.4-88.8 4.4-7.2 8-14.8 12.6-21.8 3.9-6 8.2-11.6 12.6-17.2 10.6-13.1 20.9-26.6 33.4-37.9 5.2-5.8 10.9-10.5 17.1-15.2 5.7-4.8 11.6-9.6 17.9-13.7 8.6-5.1 10.9-12.1 10.2-21.8-.1-13.9-11.7-4.9-17.6.1-5.8 4.9-12 9.5-17.8 14.5-8.1 7.5-16.4 15-23.9 23.1-4.5 5.4-9.8 9.9-14.5 15.3-16.6 18.7-31 39.2-44.2 60.3-10.8 19-20.4 38.8-28.5 59.1-4.7 14.3-9.7 28.7-13.2 43.3-1.2 5.9-2.2 12.1-3.8 17.9-1.6 6.4-2 13.2-3.1 19.6-1.3 8 3.6 8.6 10.3 11.3 1.8.8 3.9 1.7 5.8 1.8zm109.8 47.1c-4.8 31.4 2.7 64.3 26.7 86.3 5.8 5.4 11.9 10.6 19.7 12.6 19.4 3.7 17.6-9.6 17.5-23.7 0-7.9 1.7-15.7 5-22.8 6.2-13 25-10 33.7-24.5 2-3.3 3.3-7.5 7.1-9.1 3.3-1.4 7.1-1.3 10.6-1.8 3.4-.4 6.9-.8 10.3-1.3 7.6-1.2 15.5-2.4 21.4-7.2 4.6-3.8 8.7-9.8 8.7-15.9-.8-9.8-9.7-10.6-17-6.1-2.9 1.6-5.5 3.7-8.4 5.2-4.4 2.2-9.4 2.6-14.3 3.4-3.7.6-7.5.9-11.2.5-7.1-.3-11.7-6.1-17.4-9.5-20.4-12.8-45.2-5.7-57.5 14.6-3 5.1-4.5 11.2-2.5 15.8 1.6 4.2 6.6 6.3 10.6 3.6 5.8-4 8.9-11.5 15.2-14.9 6.4-3.5 18-3.8 23.8 1.2 4 3.5 3.9 9.6-1 12.3-2.4 1.5-5.3 2.4-8 3.4-8.1 2.7-14.7 8.3-20 14.7-3.6 4.1-5.5 9-6.9 14.4-1 3.5-1.7 7.1-1.9 10.8-.2 1.9-.4 5.9-2.6 5.8-1.3.1-3.4-1.9-4.6-3.2-12.8-13.8-16.8-32.7-16.2-51 .1-11.6 2.6-23.1 7.8-33.5 2.2-4.9 6.7-9 7.5-14.4.4-3.5-1.1-7.3-2.1-11-1.4-4.9-3-6.9-7.4-2.8-2.3 2.1-4.5 4.5-6.7 6.9-10.6 11.1-18.1 25.6-19.9 41.2zm536.8 29.5c1.9-8.8 1.4-18.4-.3-27.2-1.7-13.4-5.2-27-13.4-37.9-3.2-4.3-6.7-8.3-10.8-11.9-4.8-4.3-8.7-4.7-10.8 2.1-1.9 5.8-4.9 11.5-1.2 16.8 1.9 3 4.5 5.8 6.1 9 4.5 9 7.4 18.8 8.9 28.7 1.3 10.3-.6 20.5-3 30.6-1.6 7.8-5.6 14.8-10.5 21-5.6 7-9.2 7.1-10.2-1.7-1.2-7.3-5.1-14.1-9.8-20.1-6.4-8.2-11.5-9.6-18.5-.6-6.4 7.3-.9 10.6 3.5 16.6 3.3 4.6 3.8 10.3 3.8 15.8.1 6-.2 12 0 17.9.1 6.3 4.6 12.4 11.4 11.4 14.8-2.4 26.5-13.5 35.7-24.6 11.2-12.7 15.8-29.7 19.1-45.9zm-104 53.1c6.2 11.1 8.3 24.4 8.2 37-.8 21.4-11.8 43.5-31.9 52.8-7.1 3.6-14.5 6.5-22.5 4.6-10.3-2.2-18-11.6-17.6-22-.3-14.3 18.9-22.8 13.6-37.3-3.4-8.1-13.5-10.4-21.4-9.1-6.2.9-12.8 5.6-13.1 11.9-.3 5.4 3.1 7.9 7.8 9.1 2.3.9-.8 3.7-1.6 5-5.3 6-6.3 14.2-6.4 22.1-.8 15.2 6.8 30 20.9 36.4 16 8.2 32 5.1 48.1-.9 5.8-2.4 10.6-6.6 15.4-10.6 13-10.7 22.2-25.4 26.8-41.5 3.7-11.5 4.7-23.8 2.9-35.7-.4-6-1.5-11.5-3.5-17-3.7-11.6-8.3-23.7-17.5-32.1-10.8-11.2-24.2-19.4-40.2-20.5-9-1-9.5-9.1-4.5-15.1 4.1-5 10.4-7.3 15.8-10.6 15.8-10.4 8.2-24.5-9.4-20.8-2.7.6-5.2 1.8-7.5 3.3-9.5 6.2-19.8 14.5-23.3 25.8-1.6 6.6-1.9 14-.1 20.5 8.2 24.1 42.3 11.2 61 44.7zm-10.2 30.5c-1.5-12.6-9-23.1-18-31.6-11.3-9.8-26.7-14.7-41.4-13.4-14.1 2-29.8 10.9-38.7 22-2.2 2.7-4 6.8-7.2 7.9-2.5.8-5-1.1-6.9-2.7-7.7-6.2-20.3-13-29.7-6.8-4.3 3.1-5.3 10-1.8 13.9 3 3.6 8.9 4.5 13.2 6 6.8 2.1 12.1 7.2 13.8 14.1 1.5 5.2.9 11.8 3.8 16.3 5.6 9 17.6 6 19.2-4.2.6-2.9.8-6.1.4-9.1-.5-4.4-2.7-8.6-1.3-12.6 1.1-3.2 3.9-5.7 6.4-7.9 3.5-3 7.3-5.6 11.2-8 11.2-7.2 22.7-10.3 35.6-5.6 10.8 3.8 20.5 13.6 20.7 25.5.7 8.7-2.4 14.8-7.9 21.2-4.5 5.3-7.3 14.5.6 17.9 5.9 2.2 12.4-1.4 16.5-5.7 10.3-9.8 13.4-23.5 11.5-37.2zm-325.8-223.4c-5.9-3.4 9-20.6 12.4-23.5 1.2-1.1 2.5-2.3 3.6-3.4 3.3-3.1 4.1-6.5-.9-8.8-6-3-11.6-.5-16.2 3.7-8.6 7.4-16.7 15.7-22.4 25.6-4.1 7.2-5.6 15.5-9.7 22.5-2.2 3.4-5.8 5.8-8.5 8.8-10.7 10.5-21.1 26.2-11.9 40.8 2 3.3 5.5 6.6 9.3 7 3 .3 5.1-1.7 5.8-4.8.5-2.1.5-4.5.9-6.7 5.8-29.6 42.4-45.3 69.6-35.1 6.5 2.4 11.3 7.6 15.4 13 2.6 3.4 4.5 7.3 4 11.5-.3 3.8-2.8 7.5-4.3 11.4-1.5 3.7-2.6 7.6-2.3 11.5.2 5.5 3.6 10.5 9.2 11 11.1.9 11.4-13.6 15.9-20.6 4.7-8.7 12.2-16.5 21.5-19.9 6.8-2.7 14.3-4.2 21.5-2.2 5.3 1.3 10.7 2.8 15.3 5.9 11.2 7.7 18.1 20.9 17.2 34.5-.3 8.4-1.3 16.9-3.4 25.1-.7 2.9-1.4 6-.6 8.9.8 3.4 4.2 5.8 7.8 5.4 5.1-.4 9.9-5.2 12.5-9.6 4.3-7.2 4.3-16.1 4.5-24.6 0-4.2 0-8.4-.3-12.6-2.5-42-49.1-68.5-86.3-49.3-7.2 3.9-10.5 3.2-15.5-2.7-4.8-5.5-10.4-10.1-16.8-13.7-11.1-6.4 8.1-14.1 13.4-16 5.4-1.6 11.3-4.1 12 2.9.7 9.3 13.2 11.8 18.3 4.6 1.4-2.2 1.3-5.2 1.7-7.4 1.2-7.2 14.3-2.3 18.8-.8 5.8 2.2 11.8 4.1 16.8 7.6 3.2 2.2 6 4.8 8.7 7.5 3.9 3.7 7.3 9 12.6 10.6 3.7 1.2 8.2-.3 10.1-3.5 5.2-9.9-9.7-24.2-16.6-30.2-6.9-5.9-15-10.3-23.3-13.9-6.7-2.7-13.8-3.6-21-4.1-14.4-.9-29.2-1.1-42.8 4.2-13.1 4.9-25.2 12.3-33.3 24.1-3.8 5.1-9.8 5.7-16 6-2.1.1-4.5.3-6.4-.6zm132.9 81.3c-1.5-5.4-4-11-8.4-14.6-9.7-8.3-25.9-8.5-35.1.8-8.3 7.6-11.3 18.7-11.6 29.7-2.1 12.1-2 24.5-4.4 36.5-.4 2.6-1.2 5.6-.1 7.8 1.1 2.1 4.6 2.7 5.1 3.4.4 1.1-3.3 1.8-4.3 2.1-6.4 1.3-13 1.3-19.2-.4-2.3-.5-4.5-1.1-6.8-1.5-6.1-1.1-11.4-.1-17.2 1.3-37.8 9.7-57.1 52.9-53.3 89.4 3.9 40 39 77.8 81.3 71.6 11.3-2.3 24.8-9.7 29.3-21.1 3.6-14.1 5.5-30.2-3.3-42.7-1.7-2.3-4-4.9-4.8-7.6-1.3-4.8 4.1-5.5 7.5-3.2 5 3.1 7.5 9 12 12.7 3.6 3.1 8.5 4.5 13.2 5.1 7.9.8 16.7.2 23.6-4.1 6.7-4.2 6.6-15-1.3-17.5-3.8-1.1-7.8.7-11.8 1.1-1.9.2-3.8.3-5.7.2-18.8.8-41.1-22-57.5-5.5-9.2 11.2 1.8 20.7 7.5 30.3 2.4 4.3 3.8 9.2 3.4 13.8-.5 10.2-8.5 18.2-18.6 19-22.1 2.1-44.6-19.6-50.3-39.7-11.9-35.9 10-81.5 50.6-82.6 4 0 8 .4 12 .2 5.1-.2 10.1-1 15.2-1.5 6.7-.8 13.9-.7 20.4-2.6 11.4-3.5 21.8-11.9 27.7-22.1 2.5-4.9 3.5-10.5 4.4-16.1.9-5.8 1.4-11.6 1.6-17.4.2-8.1 1-16.6-1.1-24.8zm17.6-319c-1.6 1.6-1.6 4.2-1.7 6.4v29.2c.7 6.1-2.5 10.7-9 10.1-10.8 0-21.5 0-32.2 0-4.9-.2-11.7.1-12.4 6.2-.6 52.1-6.7 39.1 42.6 40.7 8.8-.8 11.7 3.9 11 12.1-.1 8.2 0 16.2 0 24.4-.4 4.8 2 9.4 7.4 9.2 9.6.1 19.1-.1 28.6.1 6.9.6 10.6-2.9 10-9.9 0-8.8 0-17.6-.1-26.4 0-2.3.1-4.9 1.4-6.8 4.2-7.1 46.2 1.7 50-5.7 1.3-2 1.2-4.8 1.2-7.2-.2-8.9-.3-17.8-.4-26.7.5-6.6-2.9-10.6-9.7-10-10.6 0-21.1 0-31.7 0-8 .7-11.5-3.9-10.9-11.6-.1-8.8-.2-17.4 0-26.2.6-6.8-2.7-10.2-9.7-9.6-9.2.1-18.3.1-27.7 0-2.3 0-5.1 0-6.8 1.6zm-146.9 312.4c1.3 1.8 1.4 4.2 2.2 6.2 1.7 4.4 8.9 4.9 13.6 3.1 4.9-1.8 8.5-5.6 10.8-10.4 5.5-10.7 7.4-32.1-7.3-35.6-3.2-.6-6.9.3-8.6 3.1-2.2 2.8.6 10-2.7 11.3-2.4.4-5.2-1.4-7.6-2-7.4-2.7-14.2 2.1-20.8 5.3-3.9 1.8-8.4 2.3-11.6 5.3-6 5.4-6.7 16.7 1.5 20.3 7.5 3.8 12.4-5 18.9-7.3 3.6-1.1 9-2.5 11.4.5zm340.3-268.7c.1-6.3-7.2-10.7-12.4-6.8-3.6 2.5-6 7.8-9.9 9.5-3.9 1.8-8.6 0-11.1-3.3-3.5-4.6-2.8-10.8-4.7-16.2-3-8.3-8.8-16.6-17.2-20-4.3-1.6-9.5-1.8-12.9 1.1-4.9 4.4-2.1 12.3 3.1 15.3 3.5 2.1 7.7 3.5 9.5 7.3 3.5 7.2 2.1 16.6 7 23.3 5.1 7.3 14.6 11.6 23.5 11.2 11.4-.6 24.6-8.8 25-21.2zm-319.7 20.2c12.2.1 22.1-5.9 25.9-17.9 2.2-5.6 1.1-12.7 4.9-17.5 3.4-3.7 9.9-4.3 12.7-9 6.2-8.9-4.9-16.9-13.2-12.6-9.5 5.1-18.2 13.1-20 24.1-.6 3.2-.7 6.6-1.7 9.6-1.5 5-7.7 8.2-12.4 5.8-5.6-3-7.7-12.3-15.8-10.2-5.1 1.1-6.7 6.8-5.4 11.3 2.3 9.5 15.3 16.7 24.7 16.4zm546.1 314.1c-13.4.6-7.7-8.6-12.1-16.5-2.1-4.4-7.3-5.6-10.5-1.7-2.7 2.9-2.9 7.3-3.1 11.1-.2 8.2-6.9 6.8-12.9 7.7-5.2.5-11.2 4.3-8.3 10 2 3.7 6.2 4.5 10.4 4.6 11.5-.4 11.1 3.3 11.4 12.9.2 3.9 2.1 8 6.4 8.1 4.3.2 7.6-3.6 8.3-7.5.8-3.6.1-7.9 1.6-10.5 1.5-2.9 5.1-3 8-3.1 3.2-.1 6.8-.5 9.6-1.9 5.5-2.6 4-9.4-1-11.8-2.4-1.3-5.2-1.3-7.8-1.4zm-791.6 1.8c-4 .1-8.1.1-10.7 2.8-2.7 2.8-1.5 7.6 2.1 9 5.5 2.9 15.7-2.1 18.5 5.1 1 3 .3 7.4 1.1 10.9.6 3.2 2.6 6.9 6.2 7.1 5 .1 7.9-5.4 8.5-9.8.5-3.3 0-7.3 1.4-9.4 2.4-3.5 7.4-1.9 11-2.5 6.7-.3 12.8-7.6 5.4-11.9-4.7-2.7-11.8.6-15.9-3.4-2.1-2.3-1.6-6.9-2.3-10.9-.6-3.2-2-6.7-4.7-8.6-3.5-2.5-7.6.1-8.9 3.9-.9 2.2-1 4.7-1.2 7.2-.2 7.8-1.7 10.5-10.2 10.5zm236.1-372.9c.3 5.5-1.1 12.3 2.6 16.9 3.9 4.2 10.5-.7 12.1-5.4 2.7-6-.3-13.6 3-19.2 2.9-4.1 9.2-4 13.5-6.2 8.4-3.9 16.7-14.7 13.8-24.4-1.4-5.9-10.3-9.4-14.4-4.3-2.9 3.4-2.7 11.3-7.3 13.5-3.3 1.6-7.3 1.3-10.7 2.7-4.1 1.6-8.3 5.2-10.5 9.4-2.7 5.2-1.8 11.2-2 16.9zm312 .1c.2-13.2.9-24-14.7-26.8-2.7-.6-5.5-.9-8-2.1-5.4-2.4-4.2-10.2-7.9-14-5.1-5.2-12-.9-13.2 5.5-2.8 10.9 5.9 20.5 15.8 23.7 3.7 1.5 8.8 1.5 11.2 5 3.3 5.9 0 14.1 3 20.4 1.7 4.7 8.8 8.1 12.1 3.5 2.7-4.4 1.4-10.1 1.7-14.9zm52.9 124.2c10.9.3 19-9.1 15.8-19.7-2-6.8-8.7-11.5-14.6-12.5-6.1-1-11.5 3.5-14.7 8.4-7 10.9.5 24 13.5 23.8zm-125.4-154.4c1.1-.1 2.2-.3 3.3-.6 4.1-1.1 4.8-6.1 1.2-8.1-7.6-3.7-9.8.2-12.1-10.2-1-4-5.2-6.6-8.2-3.2-1.9 2.3-1.8 6-3.7 8.3-3.1 4.1-12.5 1.1-13.2 7.8-.1 5.6 6.6 5.9 10.7 6.7 2.6.6 3.6 3.1 4.2 5.5.4 1.4.9 2.8 1.8 3.9 2 2.5 6.3 2.6 8.1-.1 2.5-4.4.7-9.6 7.7-10zm-142.3-.1c1.7-.2 3.5-.1 5.1-.7 3.5-1.2 3.8-6.1.7-8-3.6-2.3-10-.9-11.3-6.2-.7-2.1-1.3-4.4-2.9-6-1.9-1.8-5-2-6.8.1s-1.8 5.4-3.3 7.7c-2.1 3.3-7.5 1.6-10.2 3.9-3 2.8-1.8 8.9 2.4 9.9 4.9 1.1 7.6.6 9.2 6.4.7 2.2 1.9 4.5 4.3 5 2.1.5 4.4-.3 5.5-2.2 2.1-4 .8-9.3 7-9.7zm279.8 370.3c-7.6-.1-14.9 1.2-19.1 7.4-3.3 5.2 1.1 11.1 6.8 12.4 3.2.8 6.6.3 9.9.6 4.7.4 10.1 2.6 14.3-.4 3.5-2.4 4.8-7.6 3.5-11.5-2.3-6.2-8.4-8.1-15.4-8.5zm-220.2-381c11.3.2 16.3-11.2 11.2-20.5-2.7-5.4-9.3-9.6-15.1-6.6-4.6 2.4-9.2 8-9.6 13.6-.6 7.4 6 13.5 13.3 13.5zm321.6 383.8c-5.3.4-9 6-4.8 10.1 2.2 2.1 6.6 2.2 9 3.8 2.7 1.7 2.3 5.5 4 7.9 1.3 2 4 1.7 5.3-.1 2.6-3.5 1.5-8.4 6.6-10 1.6-.6 3.4-1.2 4.6-2.4 1.8-1.7 2.2-4.8.3-6.6-2.3-2.1-6.5-1.5-8.3-4.3-1.5-2.1-1.1-5.9-2.8-7.8-1.3-1.9-4.1-1.9-5.5 0-3.1 4.5-.8 8.6-8.3 9.3zm-32.8-33.3c.1 4.4 4.3 8.4 8.6 8.5 4.6.1 9-4.9 9.3-9.7.2-3.9-2.6-7.6-6.3-8.7-5.8-1.8-11.9 4.2-11.6 9.9zm-595.3-.7c-.2 4.6 3 9.5 8 9.2 4.6 0 9.7-4.5 9.8-8.7.2-3.1-2-5.9-4.5-7.6-5.8-4.1-13.3-.5-13.2 6.9zm254.1-176.1c0-5.5-6.6-10.4-11.5-6.8-3.9 2.5-4.9 9.3-1.3 12 4.5 3.3 13.2 1.6 12.8-5.1zm111.7 6.9c11.6.6 8.8-13.9 0-14.9-4.3-.2-7.1 4.3-7.1 8.2-.3 4.5 2.5 6.8 7.1 6.7zm-127.7-124.1c3.3-.2 6.8-2.9 8.2-6 1.4-3.7-3.4-10.2-7.2-10.2-2.1-.1-3.9 1.5-5.3 3-2 2.1-4.8 4.2-5 6.1-.3 3.1 6.3 6.9 9.1 7.1zm-254.1 328.1c.6-2.7-2.6-4.2-4.3-6-1.2-1.1-2.3-2.4-3.9-2.8-2.5-.5-4.1 1.8-6.2 3.7-1.2 1.2-2.4 2.6-2.2 4.4.5 3.1 5.4 7.9 8.3 7.6 1.8-.1 3.2-1.3 4.5-2.4 1.4-1.2 3.2-2.8 3.8-4.4zm386.5-332.1c0 9.1 11.1 7.3 11-.8-.5-5.9-11.2-5.6-11 .6zm-63.4 146.8c8.5-.3 5.4-10.4-1.8-8.7-2.9.7-3.3 5.2-1.7 7.3.8.9 2 1.3 3.4 1.4z"/><path d="m589.9 825.9c-6.1-.6-8.4-8.4-11.8-13-4.9-8.1-11-15.8-16-23.7-1.2-1.8-2.6-5.5 1.1-2.8 3.2 2.6 6.8 5.3 9.7 8.2 1.9 1.9 3.5 4 5.9 5.2 4.1 1.7 10.5 3 12.7 7.2.6 1.3.6 2.8 1.1 4.2 1.1 3.6 6.6 4.2 8.8 6.8 4 4.6-8.2 8.2-11.5 7.9z"/><path d="m629.2 808.7c-6.1.6-9.5-6.5-13-10.6-.7-1.2-4-4.4-2.8-5.5 3.3-1.1 10 1.8 13.7 3.6 2.7 1.3 5.4.7 8.2.3 3.4-.4 7-.7 10.4-.1 3 1.6-2.6 5.2-4.6 6.4-3.7 1.9-7.7 5.3-11.6 5.9z"/><path d="m726.6 666.3c-.1 0-1.2.1-.9-.2.3-.4.7-.2.9.2z"/><path d="m178.3 666.3c-.1 0-1.2.1-.9-.2s.7-.1.9.2z"/><path d="m155.3 666.3c-.2.1-.8.2-.9-.1.2-.4.7-.3.9.1z"/><path d="m668.7 554.7c0 .5-.2 1.6-.3 2-.2.3-.7-.7-.6-.9-0-.4.5-.9.9-1.1z"/><path d="m167.9 430c.2.2.4.7.3 1 0 .2-.4.8-.7.8-.1-.1 0-.6.1-.9s.2-.8.3-.9z"/><path d="m108.9 334.9c-.1-.1-1.2-.1-.5-.4.6-.5.8-.2.5.4z"/><path d="m259.4 183.2c.1.1.8.5.8.7-.1.1-.5 0-.7 0-.1-.1-.2-.5-.1-.7z"/><path d="m207.3 306.8c.1-.2.4-.5.6-.7.1.3.1.5-.1.7-.1.1-.4.1-.5 0z"/><path d="m574.1 791.2-.2.3.2.1z"/><path d="m364.6 409.2c1.4-4.1 7.2-6.4 10.4-3.1 3 3.6.2 8.6.2 12.8-.7 10.6 1.1 21.7-2.4 31.9-1.5 3.8-4.3 6.8-8 8.6-2.1 1-5.8 2.2-6.8-.2-.5-1.3 0-3 .3-4.4 2.5-8.4 3.9-17 4.6-25.7.9-6.4-.3-13.5 1.7-19.7z"/></svg>